<svg xmlns="http://www.w3.org/2000/svg" viewBox="0 0 430.36 49.6"><defs><style>.a{fill:#d0212a}</style></defs><path class="a" d="M17.14.87h17.88l-17.1 47.6H0zM42.32.87h18l9.28 27.29h.18L79.68.87h17.24l-17.14 47.6H61.2l-8.65-27.5h-.18l-9.92 27.5H25.17zM104.21.87h46.61l-4.21 11.58h-28.69l-2.78 8h24L135.3 31.1h-24.13l-6.25 17.37H87.07zM144.08 28.56C145.94 13.05 160.9 0 181.38 0c17.1 0 27.48 7.59 26 21.57-1.65 15.25-16.49 28-36.63 28-16.19.03-28.38-6.83-26.67-21.01zm28.08 10c10.68 0 16.37-9.19 17.22-17 .63-5.86-1.73-10.46-9.8-10.46-10.86.07-16.69 9.79-17.53 17.51-.58 5.35 2.13 9.94 10.11 9.94zM214.63 31.61c0-8.72 6.69-15.45 17.13-15.45 8.9 0 14.39 4.39 15.59 10.72h-8.9c-.6-2.57-2.94-4.51-6.29-4.51-5.48 0-8.29 3.6-8.29 9.24s2.61 9.23 8.16 9.23c3.68 0 6.29-1.65 6.89-5h8.76c-.6 6.22-6.28 11.18-15.45 11.18-10.84.04-17.6-6.68-17.6-15.41zM253.03 31.55c0-8.66 6.89-15.39 16.93-15.39 11 0 16.92 7.18 16.92 17.62H262c.66 4.5 3.61 7.29 8.76 7.29 3.55 0 5.62-1.37 6.62-3.59h9c-1.27 5.19-6.69 9.58-15.52 9.58-11.41 0-17.83-6.79-17.83-15.51zm9.1-3.13h15.25c-.26-3.71-3.14-6.27-7.29-6.27-4.82 0-7.17 2.45-7.96 6.27zM303.07 20.95h.2c2.34-3.14 5.48-4.79 10.17-4.79 7.09 0 11.84 4.56 11.84 11v19.09h-9.1v-18c0-3.14-2.14-5.36-5.95-5.36-4 0-7 2.73-7 6.72V46.2h-9.1V16.96h8.9zM331.3 16.96h4.75V7.84h8.87v9.12h5.89v5.13h-5.89V37.6c0 2.16 1.41 2.9 3.42 2.9h2.67v5.7s-2.07.11-5.68.11c-4.42 0-9.3-1.48-9.3-7V22.09h-4.75zM367.35 21.63h.2c2.08-3.3 4.42-5 8.43-5a6.93 6.93 0 012.14.22v6.79h-.2c-5.95-.51-10.23 2.16-10.23 8.32v14.25h-9.1V16.96h8.76zM404.68 42.95h-.14c-1.74 2.23-4.21 3.94-10.1 3.94-7 0-12-3.14-12-9 0-6.44 6.15-8.5 13.78-9.41 5.68-.68 8.29-1.08 8.29-3.31s-1.94-3.47-5.75-3.47c-4.28 0-6.35 1.31-6.62 4.1h-8.1c.27-5.13 4.75-9.63 14.79-9.63 10.3 0 14.45 3.93 14.45 10.77v14.88c0 2.22.4 3.53 1.2 4.05v.28h-8.76a7 7 0 01-1.04-3.2zm.06-7.07V31.5a29.22 29.22 0 01-6.35 1.71c-4.75.91-7.09 1.82-7.09 4.56s2.14 3.7 5.35 3.7c5.27 0 8.09-2.73 8.09-5.59zM421.27 5.44h9.1V46.2h-9.1z"/></svg>