<svg xmlns="http://www.w3.org/2000/svg" viewBox="0 0 1365.64 350.84">
  <defs><style>.a,.b{fill:none;stroke:#ee3c24;stroke-width:7px;stroke-miterlimit:10}.b{fill:#231f20;stroke:#231f20;stroke-width:2px}</style></defs>
  <path class="a" d="M3.5 5.35v206.62h69.88v-81.92s11.45.92 21.08 18.07c9.8 17.43 37.95 63.85 37.95 63.85h70.33a4.36 4.36 0 004-6.18c-6.43-14-22.27-47.73-30.48-59.59-5.73-8.27-18-20.82-29.7-26 14.19-3.94 47.07-15 47.07-54.09 0-31.22-26.48-59.95-52.06-60.74C112.63 4.45 3.5 5.35 3.5 5.35z"/>
  <path class="a" d="M72.68 56.07v27.85s33 .1 33.83 0c4.9-.56 14-3.68 14-13.93s-9.09-13.38-14-13.92c-1.03-.12-33.83 0-33.83 0zM288.16 56.02s86.19-4.51 86.19 79.23-78.83 79.53-86.19 79.53-85.84 4.15-85.84-79.39 85.84-79.37 85.84-79.37z"/>
  <path class="a" d="M288.33 103.89c11.39-.32 20.15 13.66 20.15 31.5 0 20-9.46 33.67-20.15 33.67s-21.19-11.1-21.19-31.83 11.32-33.07 21.19-33.34zM501.71 146.11s-9.64 22.95-25.23 22.95c-20 0-25.93-21.2-25.93-33.67 0-16.43 10.16-31.5 27.16-31.5s21.89 19.1 21.89 19.1l61-9.64c-14.39-59.5-88-55.5-88-55.5s-85.84-4.15-85.84 79.38 78.48 79.39 85.84 79.39c6.85 0 78.57 4.69 88-62.45zM572.48 5.61v209.21h64.32v-41.73l14.89-13.49 28.21 55.22h66.39a4.73 4.73 0 003.88-6.7c-2.6-6.18-52.58-90.57-52.58-90.57s37-35.34 47.3-49.22c1.41-1.91 1-7.53-5.78-7.53s-68.85-.53-68.85-.53L637.8 97.76V5.61zM807.05 118.96h45.55s-3.68-19.8-23-19.8-22.55 19.8-22.55 19.8z"/>
  <path class="a" d="M851.72 161.35s-1.58 14.19-21.92 14.19-22.77-21.34-22.77-21.34h109.66c1.23-3 1.23-9.15 1.23-13.84 0-83.74-88.56-78.62-88.56-78.62s-85.84-4.16-85.84 79.38 78.49 79.38 85.84 79.38c6.48 0 69.93 3.93 84.7-52.29zM944.04 61.65V37.32l64.82-31.71v56h29.43v49.42h-30s-.52 36.62 0 49.23c.11 2.57 1.58 7.71 7 7.53s17.78-2.71 19.57-3.09c2-.41 6 45 6 45s-19.1 6.66-48.44 6.66-48.44-14.19-48.44-41.52v-63.85h-20.67V61.65zM1057.73 213.03V61.65h59.74v17.36s8.94-22.59 33.11-21.37 30.48 13.84 30.48 13.84l-18.26 39.51s-38.19-7.45-38.19 17.95v84.09z"/>
  <path class="a" d="M1246.8 61.65l26.27 73.66 23.65-73.66h63.94l-63.94 174.15s-7 23.3-41.72 32a95.62 95.62 0 01-23.27 2.5c-19.27 0-40.12 0-41.69-18.22-1.12-12.87-3-22.6-2.58-27.78a2.89 2.89 0 013.75-2.52c4.25 1.35 12.84 3.32 26.85 3.32 21.38 0 20.66-17.57 18.14-23.68-14.89-36.09-57-139.78-57-139.78z"/>
  <path class="b" d="M1152.69 244.47h-114.31v105.37h114.31v-22.33h-83.04v-23.13h78.31v-18.39h-78.57v-18.4h83.3v-23.12zM941.15 349.84V244.47h-31v78.04l-62.54-78.04h-48.35v105.37h31.49v-79.53l66.26 79.53h44.14zM670.76 244.47h32.06v105.37h-32.06zM578.26 349.84H477.88V244.47h32.06v82.51h68.32v22.86zM380.92 349.84V244.47h-31.01v78.04l-62.54-78.04h-48.35v105.37h31.49v-79.53l66.26 79.53h44.15z"/>
  <path d="M106.49 242.28h-68c-10.68 0-36.44 9.81-36.44 30.49v43.27c0 15.41 9.81 33.81 36.09 33.81h68.66c26.28 0 36.09-18.4 36.09-33.81v-43.27c.04-20.68-25.71-30.49-36.4-30.49zm5.61 69.73c0 7.18-4.91 15.24-13.49 15.24h-52.2c-8.59 0-13.49-8.06-13.49-15.24v-33.29c0-11.38 13.14-12.26 13.14-12.26h52.9s13.14.88 13.14 12.26z" fill="#231f20" stroke="#231f20" stroke-miterlimit="10"/>
</svg>